<svg width="376" height="376" xmlns="http://www.w3.org/2000/svg" xmlns:xlink="http://www.w3.org/1999/xlink" xml:space="preserve" overflow="hidden"><g transform="translate(-2827 -1214)"><g><path d="M2829 1277.33C2829 1242.91 2856.91 1215 2891.33 1215L3140.67 1215C3175.09 1215 3203 1242.91 3203 1277.33L3203 1527.67C3203 1562.09 3175.09 1590 3140.67 1590L2891.33 1590C2856.91 1590 2829 1562.09 2829 1527.67Z" fill="#00916E" fill-rule="evenodd" fill-opacity="1"/><path d="M3007.41 1305.7C2954.14 1305.7 2911.18 1348.84 2911.18 1402.33 2911.18 1419.24 2915.65 1435.11 2923.21 1448.91 2930.43 1441.32 2938.33 1433.73 2946.92 1425.45 2968.57 1405.09 2994.01 1384.38 3015.31 1369.2 3016.69 1368.16 3018.06 1367.47 3019.78 1367.47 3023.56 1367.47 3026.65 1370.58 3026.65 1374.38 3026.65 1376.79 3025.62 1378.52 3023.9 1379.9L3023.9 1379.9C2993.32 1401.98 2952.77 1436.15 2925.27 1467.2 2925.27 1467.2 2921.49 1471.34 2919.77 1473.41 2904.31 1491.7 2894 1508.27 2894 1520L2914.62 1520C2914.62 1512.41 2926.65 1495.84 2944.86 1476.17 2961.7 1490.67 2983.35 1499.3 3007.41 1499.3 3024.59 1499.3 3041.09 1494.81 3055.18 1486.53 3128.72 1445.46 3138 1369.89 3138 1285 3138 1285 3057.93 1307.09 3007.41 1305.7Z" fill="#FFFFFF" fill-rule="evenodd" fill-opacity="1"/></g></g></svg>