<svg width="1141" height="238" xmlns="http://www.w3.org/2000/svg" xmlns:xlink="http://www.w3.org/1999/xlink" xml:space="preserve" overflow="hidden"><g transform="translate(-1260 -1118)"><g><path d="M1937.15 1259.74C1929.32 1259.74 1925.19 1262.63 1925.19 1267.99 1925.19 1273.48 1929.87 1276.92 1937.02 1276.92 1946.78 1276.92 1954.47 1269.91 1954.47 1260.98L1954.47 1259.74ZM2283.43 1230.74C2271.47 1230.74 2262.67 1240.08 2262.67 1252.73 2262.67 1265.51 2271.33 1274.86 2283.43 1274.86 2295.53 1274.86 2303.77 1265.92 2303.77 1252.87 2303.77 1239.81 2295.53 1230.74 2283.43 1230.74ZM1860.72 1230.74C1848.76 1230.74 1839.96 1240.08 1839.96 1252.73 1839.96 1265.51 1848.62 1274.86 1860.72 1274.86 1872.82 1274.86 1881.07 1265.92 1881.07 1252.87 1881.07 1239.81 1872.82 1230.74 1860.72 1230.74ZM2368.25 1229.78C2358.49 1229.78 2351.06 1236.37 2348.86 1246.27L2385.57 1246.27C2385.29 1236.51 2378.42 1229.78 2368.25 1229.78ZM2151.74 1229.78C2141.98 1229.78 2134.55 1236.37 2132.35 1246.27L2169.06 1246.27C2168.78 1236.51 2161.91 1229.78 2151.74 1229.78ZM1701.54 1229.78C1691.78 1229.78 1684.35 1236.37 1682.15 1246.27L1718.86 1246.27C1718.58 1236.51 1711.71 1229.78 1701.54 1229.78ZM2368.66 1217.54C2386.67 1217.54 2400 1230.74 2400 1248.88L2400 1249.57C2400 1254.52 2396.84 1257.54 2391.75 1257.54L2348.59 1257.54C2350.51 1268.4 2358.62 1275.27 2370.58 1275.27 2376.36 1275.27 2381.85 1273.48 2386.39 1270.05 2387.63 1269.22 2388.87 1268.67 2390.1 1268.67 2393.54 1268.67 2396.15 1271.28 2396.15 1274.72 2396.15 1277.19 2395.19 1278.84 2392.58 1280.77 2386.12 1285.58 2378.56 1288.05 2370.17 1288.05 2349.28 1288.05 2333.88 1273.07 2333.88 1252.87 2333.88 1232.94 2349 1217.54 2368.66 1217.54ZM2207.96 1217.54C2211.95 1217.54 2214.97 1220.7 2214.97 1224.97L2214.97 1227.03C2219.51 1221.67 2226.24 1218.37 2233.8 1218.37 2237.79 1218.37 2240.68 1221.12 2240.68 1224.97 2240.68 1228.95 2237.79 1231.7 2233.67 1231.97 2222.67 1232.25 2215.11 1239.67 2215.11 1250.53L2215.11 1280.63C2215.11 1285.03 2212.08 1288.05 2207.96 1288.05 2203.84 1288.05 2200.67 1284.89 2200.67 1280.63L2200.67 1224.97C2200.67 1220.7 2203.7 1217.54 2207.96 1217.54ZM2152.15 1217.54C2170.16 1217.54 2183.49 1230.74 2183.49 1248.88L2183.49 1249.57C2183.49 1254.52 2180.33 1257.54 2175.24 1257.54L2132.08 1257.54C2134 1268.4 2142.11 1275.27 2154.07 1275.27 2159.85 1275.27 2165.35 1273.48 2169.88 1270.05 2171.12 1269.22 2172.36 1268.67 2173.59 1268.67 2177.03 1268.67 2179.64 1271.28 2179.64 1274.72 2179.64 1277.19 2178.68 1278.84 2176.07 1280.77 2169.61 1285.58 2162.05 1288.05 2153.66 1288.05 2132.77 1288.05 2117.37 1273.07 2117.37 1252.87 2117.37 1232.94 2132.49 1217.54 2152.15 1217.54ZM1941.28 1217.54C1958.73 1217.54 1969.04 1227.99 1969.04 1245.72L1969.04 1280.77C1969.04 1285.03 1966.02 1288.05 1961.9 1288.05 1957.77 1288.05 1954.75 1284.89 1954.75 1280.77L1954.75 1279.94C1949.8 1285.17 1942.65 1288.05 1933.99 1288.05 1919.97 1288.05 1910.48 1280.22 1910.48 1268.54 1910.48 1256.72 1920.11 1249.29 1935.37 1249.29L1954.47 1249.29 1954.47 1244.89C1954.47 1235.69 1949.25 1230.46 1940.04 1230.46 1934.4 1230.46 1929.32 1232.52 1925.06 1236.79 1923.27 1238.3 1921.76 1238.98 1920.11 1238.98 1916.67 1238.98 1913.78 1236.1 1913.78 1232.94 1913.78 1230.88 1914.75 1228.95 1916.67 1227.03 1922.44 1220.98 1931.38 1217.54 1941.28 1217.54ZM1757.76 1217.54C1761.75 1217.54 1764.77 1220.7 1764.77 1224.97 1769.58 1220.29 1776.32 1217.54 1784.15 1217.54 1799.55 1217.54 1809.45 1227.99 1809.45 1244.35L1809.45 1280.63C1809.45 1285.03 1806.29 1288.05 1802.3 1288.05 1798.04 1288.05 1795.01 1284.89 1795.01 1280.63L1795.01 1246.27C1795.01 1236.92 1789.1 1230.6 1780.3 1230.6 1771.37 1230.6 1764.91 1237.2 1764.91 1246.27L1764.91 1280.63C1764.91 1285.03 1761.88 1288.05 1757.76 1288.05 1753.64 1288.05 1750.47 1284.89 1750.47 1280.63L1750.47 1224.97C1750.47 1220.7 1753.5 1217.54 1757.76 1217.54ZM1701.95 1217.54C1719.96 1217.54 1733.29 1230.74 1733.29 1248.88L1733.29 1249.57C1733.29 1254.52 1730.13 1257.54 1725.04 1257.54L1681.88 1257.54C1683.8 1268.4 1691.91 1275.27 1703.87 1275.27 1709.65 1275.27 1715.15 1273.48 1719.68 1270.05 1720.92 1269.22 1722.16 1268.67 1723.39 1268.67 1726.83 1268.67 1729.44 1271.28 1729.44 1274.72 1729.44 1277.19 1728.48 1278.84 1725.87 1280.77 1719.41 1285.58 1711.85 1288.05 1703.46 1288.05 1682.57 1288.05 1667.17 1273.07 1667.17 1252.87 1667.17 1232.94 1682.29 1217.54 1701.95 1217.54ZM1644.35 1217.54C1648.47 1217.54 1651.5 1220.7 1651.5 1224.97L1651.5 1280.63C1651.5 1284.89 1648.34 1288.05 1644.21 1288.05 1640.09 1288.05 1637.06 1284.89 1637.06 1280.63L1637.06 1224.97C1637.06 1220.7 1640.09 1217.54 1644.35 1217.54ZM1555.82 1195.83 1619.47 1195.83C1623.32 1195.83 1626.2 1198.71 1626.2 1202.42 1626.2 1206.14 1623.32 1208.88 1619.47 1208.88L1594.86 1208.88 1594.86 1280.63C1594.86 1284.89 1591.7 1288.05 1587.58 1288.05 1583.45 1288.05 1580.29 1284.89 1580.29 1280.63L1580.29 1208.88 1555.82 1208.88C1551.97 1208.88 1549.09 1206.14 1549.09 1202.42 1549.09 1198.71 1551.97 1195.83 1555.82 1195.83ZM2030.22 1194.32C2033.52 1194.32 2035.85 1196.1 2037.09 1199.4L2064.03 1265.24 2090.84 1199.4C2092.21 1196.1 2094.41 1194.32 2097.71 1194.32 2101.7 1194.32 2104.86 1197.48 2104.86 1201.32 2104.86 1202.56 2104.45 1203.94 2103.76 1205.45L2070.91 1283.1C2069.53 1286.4 2067.2 1288.05 2063.9 1288.05 2060.73 1288.05 2058.4 1286.4 2057.02 1283.1L2024.17 1205.45C2023.34 1203.94 2023.07 1202.56 2023.07 1201.32 2023.07 1197.48 2026.23 1194.32 2030.22 1194.32ZM1644.35 1184.56C1649.57 1184.56 1653.97 1188.68 1653.97 1193.9 1653.97 1199.13 1649.57 1203.25 1644.35 1203.25 1638.99 1203.25 1634.59 1199.13 1634.59 1193.9 1634.59 1188.68 1638.99 1184.56 1644.35 1184.56ZM2310.78 1181.95C2314.91 1181.95 2318.07 1184.97 2318.07 1189.37L2318.07 1280.77C2318.07 1285.03 2314.91 1288.05 2310.92 1288.05 2306.8 1288.05 2303.77 1284.89 2303.77 1280.77L2303.77 1278.02C2298.83 1284.34 2290.71 1288.05 2280.95 1288.05 2261.98 1288.05 2247.96 1273.21 2247.96 1252.87 2247.96 1232.52 2261.98 1217.54 2280.95 1217.54 2290.44 1217.54 2298.41 1221.25 2303.5 1227.3L2303.5 1189.37C2303.5 1185.11 2306.66 1181.95 2310.78 1181.95ZM1888.08 1181.95C1892.2 1181.95 1895.36 1184.97 1895.36 1189.37L1895.36 1280.77C1895.36 1285.03 1892.2 1288.05 1888.21 1288.05 1884.09 1288.05 1881.07 1284.89 1881.07 1280.77L1881.07 1278.02C1876.12 1284.34 1868.01 1288.05 1858.25 1288.05 1839.28 1288.05 1825.26 1273.21 1825.26 1252.87 1825.26 1232.52 1839.28 1217.54 1858.25 1217.54 1867.73 1217.54 1875.71 1221.25 1880.79 1227.3L1880.79 1189.37C1880.79 1185.11 1883.95 1181.95 1888.08 1181.95ZM1506 1121C1506 1205.53 1496.72 1280.78 1423.18 1321.67 1409.09 1329.92 1392.59 1334.38 1375.41 1334.38 1351.35 1334.38 1329.7 1325.79 1312.86 1311.36 1294.65 1330.95 1282.62 1347.44 1282.62 1355L1262 1355C1262 1343.32 1272.31 1326.82 1287.77 1308.61 1289.49 1306.55 1293.27 1302.43 1293.27 1302.43 1320.77 1271.5 1361.32 1237.48 1391.91 1215.49 1393.62 1214.12 1394.65 1212.4 1394.65 1210 1394.65 1206.22 1391.56 1203.12 1387.78 1203.12 1386.06 1203.12 1384.69 1203.81 1383.31 1204.84 1362.01 1219.96 1336.58 1240.58 1314.92 1260.85 1306.33 1269.1 1298.43 1276.66 1291.21 1284.22 1283.65 1270.47 1279.18 1254.67 1279.18 1237.83 1279.18 1184.57 1322.14 1141.62 1375.41 1141.62 1425.93 1142.99 1506 1121 1506 1121Z" fill="#00916E" fill-rule="evenodd" fill-opacity="1"/></g></g></svg>